<svg width="375" height="403" viewBox="0 0 375 403" fill="none" xmlns="http://www.w3.org/2000/svg">
<g filter="url(#filter0_d_0_1756)">
<circle cx="188" cy="183.5" r="155" fill="black"/>
</g>
<circle cx="188" cy="183.5" r="155" fill="#232340"/>
<path d="M108.893 150.068C108.893 140.953 112.174 133.479 118.737 127.646C125.299 121.767 133.685 118.827 143.893 118.827C153.691 118.827 161.758 121.493 168.092 126.825C174.472 132.157 177.662 138.834 177.662 146.855C177.662 152.369 176.113 157.587 173.014 162.509C169.961 167.385 164.879 173.401 157.77 180.556L133.366 204.687V205.029H179.166V219.452H109.85V207.558L146.149 171.464C151.754 165.722 155.537 161.233 157.496 157.997C159.456 154.762 160.436 151.298 160.436 147.607C160.436 143.505 158.795 140.042 155.514 137.216C152.278 134.391 148.222 132.978 143.346 132.978C138.196 132.978 133.912 134.596 130.495 137.831C127.122 141.067 125.436 145.123 125.436 149.999V150.273H108.893V150.068ZM229.411 221.435C218.017 221.435 208.766 218.769 201.657 213.437C194.547 208.105 190.993 201.223 190.993 192.792C190.993 186.412 193.043 180.92 197.145 176.318C201.292 171.669 206.715 168.707 213.414 167.431V167.089C207.809 165.631 203.32 162.896 199.948 158.886C196.575 154.83 194.889 150.136 194.889 144.804C194.889 137.284 198.125 131.087 204.596 126.21C211.113 121.288 219.384 118.827 229.411 118.827C239.482 118.827 247.731 121.288 254.157 126.21C260.628 131.087 263.864 137.307 263.864 144.872C263.864 150.159 262.177 154.807 258.805 158.818C255.478 162.828 251.012 165.585 245.407 167.089V167.431C252.151 168.753 257.575 171.738 261.676 176.386C265.823 180.989 267.897 186.458 267.897 192.792C267.897 201.223 264.319 208.105 257.164 213.437C250.009 218.769 240.758 221.435 229.411 221.435ZM214.918 203.32C218.701 206.419 223.532 207.968 229.411 207.968C235.289 207.968 240.12 206.419 243.903 203.32C247.685 200.221 249.577 196.279 249.577 191.493C249.577 186.663 247.685 182.698 243.903 179.599C240.166 176.5 235.335 174.95 229.411 174.95C223.532 174.95 218.701 176.523 214.918 179.667C211.136 182.766 209.245 186.708 209.245 191.493C209.245 196.279 211.136 200.221 214.918 203.32ZM229.411 161.484C234.378 161.484 238.457 160.116 241.647 157.382C244.837 154.602 246.432 151.093 246.432 146.855C246.432 142.571 244.837 139.062 241.647 136.327C238.457 133.547 234.378 132.157 229.411 132.157C224.398 132.157 220.296 133.547 217.106 136.327C213.916 139.062 212.321 142.571 212.321 146.855C212.321 151.093 213.916 154.602 217.106 157.382C220.296 160.116 224.398 161.484 229.411 161.484Z" fill="white"/>
<path d="M126.247 255.845H131.564C134.271 255.845 135.915 254.474 135.915 252.241V252.224C135.915 250.554 134.702 249.306 132.918 249.148V249.095C134.271 248.91 135.299 247.698 135.299 246.344V246.326C135.299 244.402 133.814 243.162 131.511 243.162H126.247V255.845ZM130.94 244.929C132.285 244.929 133.058 245.544 133.058 246.634V246.652C133.058 247.821 132.171 248.489 130.588 248.489H128.514V244.929H130.94ZM130.949 250.132C132.689 250.132 133.603 250.809 133.603 252.092V252.11C133.603 253.402 132.707 254.078 131.046 254.078H128.514V250.132H130.949ZM138.472 245.193C139.158 245.193 139.685 244.648 139.685 243.997C139.685 243.329 139.158 242.793 138.472 242.793C137.787 242.793 137.251 243.329 137.251 243.997C137.251 244.648 137.787 245.193 138.472 245.193ZM137.374 255.845H139.562V246.529H137.374V255.845ZM145.627 259.106C148.325 259.106 150.021 257.691 150.021 255.581V246.529H147.833V248.111H147.78C147.253 247.038 146.233 246.335 144.915 246.335C142.559 246.335 141.039 248.146 141.039 251.09V251.099C141.039 253.999 142.542 255.792 144.879 255.792C146.215 255.792 147.27 255.159 147.789 254.166H147.833V255.511C147.833 256.698 147.05 257.453 145.627 257.453C144.484 257.453 143.737 257.049 143.5 256.513L143.473 256.443H141.32L141.338 256.522C141.601 257.981 143.157 259.106 145.627 259.106ZM145.565 254.105C144.159 254.105 143.271 252.971 143.271 251.134V251.125C143.271 249.315 144.159 248.181 145.565 248.181C146.919 248.181 147.841 249.332 147.841 251.134V251.143C147.841 252.953 146.927 254.105 145.565 254.105ZM155.91 256.03C158.344 256.03 159.715 254.588 160.005 253.156L160.032 253.059H157.984L157.966 253.12C157.755 253.744 157.044 254.324 155.954 254.324C154.53 254.324 153.633 253.358 153.598 251.723H160.12V251.02C160.12 248.207 158.467 246.335 155.804 246.335C153.141 246.335 151.427 248.269 151.427 251.204V251.213C151.427 254.175 153.115 256.03 155.91 256.03ZM155.831 248.049C156.991 248.049 157.835 248.787 157.993 250.264H153.625C153.8 248.831 154.671 248.049 155.831 248.049ZM165.173 256.03C167.459 256.03 169.085 254.852 169.085 253.094V253.085C169.085 251.732 168.338 250.976 166.413 250.545L164.857 250.202C163.89 249.983 163.53 249.631 163.53 249.095V249.086C163.53 248.401 164.136 247.952 165.103 247.952C166.123 247.952 166.72 248.497 166.817 249.244L166.826 249.315H168.865L168.856 249.218C168.777 247.61 167.423 246.335 165.103 246.335C162.853 246.335 161.368 247.487 161.368 249.192V249.2C161.368 250.58 162.264 251.45 164.048 251.846L165.595 252.189C166.562 252.408 166.887 252.725 166.887 253.287V253.296C166.887 253.982 166.246 254.412 165.182 254.412C164.075 254.412 163.468 253.938 163.301 253.138L163.284 253.059H161.13L161.139 253.138C161.333 254.869 162.73 256.03 165.173 256.03ZM173.945 256.03C174.384 256.03 174.771 255.986 175.026 255.95V254.307C174.877 254.316 174.71 254.342 174.499 254.342C173.699 254.342 173.295 254.052 173.295 253.138V248.216H175.026V246.529H173.295V244.164H171.071V246.529H169.753V248.216H171.071V253.323C171.071 255.239 171.994 256.03 173.945 256.03ZM180.352 255.845H185.67C188.377 255.845 190.02 254.474 190.02 252.241V252.224C190.02 250.554 188.807 249.306 187.023 249.148V249.095C188.377 248.91 189.405 247.698 189.405 246.344V246.326C189.405 244.402 187.92 243.162 185.617 243.162H180.352V255.845ZM185.046 244.929C186.39 244.929 187.164 245.544 187.164 246.634V246.652C187.164 247.821 186.276 248.489 184.694 248.489H182.62V244.929H185.046ZM185.054 250.132C186.795 250.132 187.709 250.809 187.709 252.092V252.11C187.709 253.402 186.812 254.078 185.151 254.078H182.62V250.132H185.054ZM191.418 255.845H193.606V250.387C193.606 249.077 194.353 248.278 195.592 248.278C195.962 248.278 196.296 248.33 196.48 248.401V246.423C196.313 246.379 196.058 246.335 195.786 246.335C194.687 246.335 193.87 246.994 193.588 248.084H193.545V246.529H191.418V255.845ZM200.145 256.003C201.376 256.003 202.413 255.388 202.949 254.412H203.002V255.845H205.19V249.438C205.19 247.566 203.687 246.335 201.358 246.335C198.994 246.335 197.561 247.574 197.429 249.227L197.421 249.332H199.451L199.468 249.253C199.609 248.568 200.242 248.084 201.279 248.084C202.386 248.084 203.002 248.656 203.002 249.596V250.238L200.567 250.387C198.308 250.528 197.025 251.521 197.025 253.173V253.191C197.025 254.852 198.282 256.003 200.145 256.003ZM199.205 253.103V253.094C199.205 252.356 199.794 251.89 200.875 251.82L203.002 251.688V252.391C203.002 253.498 202.052 254.333 200.796 254.333C199.838 254.333 199.205 253.867 199.205 253.103ZM206.957 255.845H209.145V250.44C209.145 249.095 209.945 248.181 211.202 248.181C212.45 248.181 213.065 248.928 213.065 250.255V255.845H215.254V249.816C215.254 247.654 214.085 246.335 212.037 246.335C210.622 246.335 209.672 246.986 209.189 247.988H209.145V246.529H206.957V255.845ZM220.474 256.03C221.819 256.03 222.847 255.362 223.375 254.263H223.427V255.845H225.616V243.162H223.427V248.128H223.375C222.847 247.012 221.784 246.335 220.465 246.335C218.128 246.335 216.625 248.172 216.625 251.178V251.187C216.625 254.184 218.119 256.03 220.474 256.03ZM221.133 254.184C219.727 254.184 218.857 253.041 218.857 251.187V251.178C218.857 249.323 219.736 248.181 221.133 248.181C222.478 248.181 223.427 249.359 223.427 251.178V251.187C223.427 253.015 222.487 254.184 221.133 254.184ZM228.613 245.193C229.298 245.193 229.826 244.648 229.826 243.997C229.826 243.329 229.298 242.793 228.613 242.793C227.927 242.793 227.391 243.329 227.391 243.997C227.391 244.648 227.927 245.193 228.613 245.193ZM227.514 255.845H229.703V246.529H227.514V255.845ZM231.566 255.845H233.754V250.44C233.754 249.095 234.554 248.181 235.811 248.181C237.059 248.181 237.674 248.928 237.674 250.255V255.845H239.863V249.816C239.863 247.654 238.694 246.335 236.646 246.335C235.231 246.335 234.282 246.986 233.798 247.988H233.754V246.529H231.566V255.845ZM245.822 259.106C248.52 259.106 250.216 257.691 250.216 255.581V246.529H248.028V248.111H247.975C247.448 247.038 246.428 246.335 245.11 246.335C242.754 246.335 241.234 248.146 241.234 251.09V251.099C241.234 253.999 242.737 255.792 245.075 255.792C246.411 255.792 247.465 255.159 247.984 254.166H248.028V255.511C248.028 256.698 247.246 257.453 245.822 257.453C244.679 257.453 243.932 257.049 243.695 256.513L243.669 256.443H241.515L241.533 256.522C241.796 257.981 243.352 259.106 245.822 259.106ZM245.76 254.105C244.354 254.105 243.466 252.971 243.466 251.134V251.125C243.466 249.315 244.354 248.181 245.76 248.181C247.114 248.181 248.037 249.332 248.037 251.134V251.143C248.037 252.953 247.123 254.105 245.76 254.105Z" fill="white"/>
<defs>
<filter id="filter0_d_0_1756" x="-18" y="0.5" width="412" height="412" filterUnits="userSpaceOnUse" color-interpolation-filters="sRGB">
<feFlood flood-opacity="0" result="BackgroundImageFix"/>
<feColorMatrix in="SourceAlpha" type="matrix" values="0 0 0 0 0 0 0 0 0 0 0 0 0 0 0 0 0 0 127 0" result="hardAlpha"/>
<feOffset dy="23"/>
<feGaussianBlur stdDeviation="25.5"/>
<feColorMatrix type="matrix" values="0 0 0 0 0 0 0 0 0 0 0 0 0 0 0 0 0 0 0.242297 0"/>
<feBlend mode="normal" in2="BackgroundImageFix" result="effect1_dropShadow_0_1756"/>
<feBlend mode="normal" in="SourceGraphic" in2="effect1_dropShadow_0_1756" result="shape"/>
</filter>
</defs>
</svg>
